<?xml version="1.0" encoding="UTF-8"?>
<svg xmlns="http://www.w3.org/2000/svg" xmlns:xlink="http://www.w3.org/1999/xlink" version="1.1" width="1000" height="1000" viewBox="0 0 1000 1000" xml:space="preserve">
    <g id="dirt" class="hidden"> 
        <g transform="matrix(0.1604 0 0 0.1604 25.1236 21.6595)" id="550269">
            <path style="stroke: none; stroke-width: 1; stroke-dasharray: none; stroke-linecap: butt; stroke-dashoffset: 0; stroke-linejoin: miter; stroke-miterlimit: 4;" vector-effect="non-scaling-stroke" transform=" translate(-374.7002, -302.1049)" d="m 442.4 270.48 c -20.719 -2.2383 -24.078 -6.1602 -21.281 -10.078 c 3.3594 -3.9219 76.719 -39.199 51.52 -68.32 c -10.078 -8.9609 -33.039 18.48 -45.922 26.879 c -12.879 8.3984 -17.922 17.922 -27.441 14.559 c -10.078 -2.8008 -7.8398 -18.48 -15.68 -25.199 c -7.8398 -7.2812 -21.84 -10.641 -34.16 8.3984 c -11.762 19.039 -16.801 6.1602 -22.398 -0.55859 c -5.6016 -7.2812 -10.641 -47.602 -28 -45.922 c -17.922 1.6797 -1.6797 31.359 -1.6797 38.641 s 4.4805 29.68 -15.68 32.48 c -19.602 2.8008 -38.641 -8.9609 -50.961 -5.0391 c -11.195 4.4805 -12.316 15.68 -4.4766 21.281 c 7.8398 5.6016 48.16 8.3984 57.68 14 c 29.68 18.48 -43.121 49.84 -30.801 70 c 12.32 20.16 57.121 -19.039 68.32 -17.359 c 11.199 2.2383 -3.3594 40.879 -1.6797 52.078 c 2.2383 11.199 12.879 29.68 42.559 26.32 c 29.68 -3.3594 0 -40.32 0 -48.16 c 0 -7.8398 -3.3594 -25.199 12.879 -15.68 c 16.238 9.5195 16.238 42.559 36.961 68.879 c 21.281 26.32 78.961 42 58.801 2.2383 c -19.602 -39.762 -47.039 -38.641 -54.879 -52.641 s -12.879 -41.441 0.55859 -33.602 c 13.441 7.8398 5.0391 19.039 21.84 28 c 16.801 8.9609 38.078 5.0391 29.68 -13.441 s -19.039 -15.68 -29.68 -22.398 c -10.641 -7.2812 -31.922 -29.121 -14 -29.68 c 17.922 -0.55859 96.32 57.121 103.04 35.84 c 7.2852 -19.598 -44.234 -47.598 -85.117 -51.516 z" stroke-linecap="round"/>
        </g>
    </g>
</svg>
